C:\Users\lingh\OneDrive - KTH\ExMaterials\7-Doctor\Research\2-simulation\PredSimResults\Falisse_et_al_20220.2weak\Falisse_et_al_2022_v2.mot
version=1
nRows=4
nColumns=124
inDegrees=yes
endheader
                time	         pelvis_tilt	         pelvis_list	     pelvis_rotation	           pelvis_tx	           pelvis_ty	           pelvis_tz	       hip_flexion_r	     hip_adduction_r	      hip_rotation_r	        knee_angle_r	       ankle_angle_r	    subtalar_angle_r	         mtp_angle_r	       hip_flexion_l	     hip_adduction_l	      hip_rotation_l	        knee_angle_l	       ankle_angle_l	    subtalar_angle_l	         mtp_angle_l	    lumbar_extension	      lumbar_bending	     lumbar_rotation	          arm_flex_r	           arm_add_r	           arm_rot_r	        elbow_flex_r	          arm_flex_l	           arm_add_l	           arm_rot_l	        elbow_flex_l	glut_med1_r/activation	glut_med2_r/activation	glut_med3_r/activation	glut_min1_r/activation	glut_min2_r/activation	glut_min3_r/activation	semimem_r/activation	semiten_r/activation	bifemlh_r/activation	bifemsh_r/activation	    sar_r/activation	add_long_r/activation	add_brev_r/activation	add_mag1_r/activation	add_mag2_r/activation	add_mag3_r/activation	    tfl_r/activation	   pect_r/activation	   grac_r/activation	glut_max1_r/activation	glut_max2_r/activation	glut_max3_r/activation	iliacus_r/activation	  psoas_r/activation	quad_fem_r/activation	    gem_r/activation	   peri_r/activation	rect_fem_r/activation	vas_med_r/activation	vas_int_r/activation	vas_lat_r/activation	med_gas_r/activation	lat_gas_r/activation	 soleus_r/activation	tib_post_r/activation	flex_dig_r/activation	flex_hal_r/activation	tib_ant_r/activation	per_brev_r/activation	per_long_r/activation	per_tert_r/activation	ext_dig_r/activation	ext_hal_r/activation	glut_med1_l/activation	glut_med2_l/activation	glut_med3_l/activation	glut_min1_l/activation	glut_min2_l/activation	glut_min3_l/activation	semimem_l/activation	semiten_l/activation	bifemlh_l/activation	bifemsh_l/activation	    sar_l/activation	add_long_l/activation	add_brev_l/activation	add_mag1_l/activation	add_mag2_l/activation	add_mag3_l/activation	    tfl_l/activation	   pect_l/activation	   grac_l/activation	glut_max1_l/activation	glut_max2_l/activation	glut_max3_l/activation	iliacus_l/activation	  psoas_l/activation	quad_fem_l/activation	    gem_l/activation	   peri_l/activation	rect_fem_l/activation	vas_med_l/activation	vas_int_l/activation	vas_lat_l/activation	med_gas_l/activation	lat_gas_l/activation	 soleus_l/activation	tib_post_l/activation	flex_dig_l/activation	flex_hal_l/activation	tib_ant_l/activation	per_brev_l/activation	per_long_l/activation	per_tert_l/activation	ext_dig_l/activation	ext_hal_l/activation	 ercspn_r/activation	 ercspn_l/activation	 intobl_r/activation	 intobl_l/activation	 extobl_r/activation	 extobl_l/activation	
          3.00000000	         -6.17601121	         -5.08620713	         14.88116098	          3.96559873	          0.92849426	         -0.00429478	         19.00057101	          3.76653099	         -9.82144580	        -41.60370148	          1.04208860	          6.84496759	         27.14458939	         19.51180287	         -0.89007313	         -0.14195044	        -29.89098633	         17.33712767	          2.58085947	          1.57278386	          3.75530259	         -1.33460384	          6.41377010	         -6.44058596	        -17.24210010	         17.70620215	         97.24249982	        -28.82379628	        -14.28347963	         -8.93521453	         52.59510297	          0.18354150	          0.18004665	          0.29050549	          0.05984021	          0.11282042	          0.19946505	          0.16782168	          0.11851855	          0.10222317	          0.11945474	          0.16466172	          0.05000001	          0.05000001	          0.05000004	          0.05000003	          0.05000004	          0.54151258	          0.05000010	          0.17252989	          0.06667773	          0.06748400	          0.05000000	          0.38805506	          0.53567705	          0.10768622	          0.39614531	          0.25511588	          0.53862172	          0.06666665	          0.06666666	          0.05762823	          0.15802466	          0.23312299	          0.13504683	          0.31868799	          0.33599763	          0.32178166	          0.11685101	          0.05000001	          0.09822537	          0.05000001	          0.31633998	          0.05000063	          0.95710109	          0.84022829	          0.05000003	          0.83979421	          0.81422164	          0.57654595	          0.36693585	          0.21864773	          0.05640875	          0.05000001	          0.05000009	          0.05415663	          0.07666933	          0.05815543	          0.15753143	          0.78223696	          0.19925546	          0.07713644	          0.05000007	          0.07670826	          0.17694304	          0.25324665	          0.05000000	          0.05000000	          0.05000000	          0.05000000	          0.05000002	          0.07501878	          0.13584553	          0.13806152	          0.10404341	          0.05533165	          0.05489936	          0.06559282	          0.32025855	          0.28720371	          0.16304303	          0.60065833	          0.06666667	          0.06666666	          0.34903834	          0.62938306	          0.75272549	          0.06197424	          0.13390571	          0.14520038	          0.05000000	          0.05000000	          0.08693317	
          3.02000000	         -5.92573325	         -5.34678696	         14.82547261	          3.98995802	          0.92596300	         -0.00329240	         21.58975827	          3.25760404	        -11.03050899	        -48.71074952	         -0.24531485	          8.20717796	         23.95586923	         19.10355605	         -0.74064844	          0.28694721	        -27.85980165	         17.37800067	          1.33946548	          1.00596246	          3.77622431	         -1.73265523	          6.57266833	         -5.52299173	        -17.77536640	         17.31114260	         92.10856844	        -27.93538159	        -13.91887797	         -9.39814702	         51.90898247	          0.13765614	          0.13503499	          0.21787912	          0.11063534	          0.08461608	          0.14959881	          0.12586629	          0.08888893	          0.07666740	          0.12283641	          0.28094514	          0.16550666	          0.05000002	          0.05000001	          0.05000001	          0.05000000	          0.40970712	          0.33606780	          0.19111395	          0.05000831	          0.05061300	          0.05000000	          0.33932660	          0.42906700	          0.08076467	          0.45525023	          0.19133695	          0.73032007	          0.05000000	          0.05000000	          0.05000000	          0.11851850	          0.17484224	          0.10128512	          0.23901599	          0.25199823	          0.24133625	          0.42984817	          0.46247128	          0.15802208	          0.59285715	          0.70700284	          0.59285740	          0.98161475	          0.71793425	          0.09791620	          0.90599085	          0.73298061	          0.43241063	          0.27701800	          0.16398581	          0.05000000	          0.05000000	          0.05000004	          0.05000000	          0.05750200	          0.05000005	          0.11814859	          0.72157135	          0.14944173	          0.05785234	          0.05000000	          0.13940430	          0.26555178	          0.31583899	          0.05000000	          0.05000000	          0.05000000	          0.05000002	          0.05000012	          0.05626409	          0.29948334	          0.28911508	          0.22916319	          0.05000000	          0.05000000	          0.05000000	          0.37724036	          0.21540300	          0.20974699	          0.82885357	          0.05000000	          0.05000000	          0.37170898	          0.55557938	          0.72906675	          0.05937985	          0.10042928	          0.23866586	          0.05000007	          0.05000000	          0.06519995	
          3.04000000	         -5.67938726	         -5.50488378	         14.67292971	          4.01469797	          0.92072996	         -0.00227254	         24.46236423	          2.56769015	        -12.13175435	        -55.77810862	         -0.12698189	          8.78970516	         18.76926957	         17.84462331	         -1.06255401	          0.82735432	        -28.49492793	         19.01900466	          0.42598724	          1.62982742	          3.79684278	         -2.14470593	          6.64103057	         -4.42831873	        -18.15968955	         17.08637374	         86.39324886	        -26.62105497	        -13.84946365	         -9.01928286	         49.78832103	          0.10324211	          0.10127625	          0.16340935	          0.08297654	          0.06346212	          0.11219913	          0.09439974	          0.06666670	          0.05750057	          0.09212732	          0.21809261	          0.50973261	          0.05000001	          0.05000003	          0.05000001	          0.05000000	          0.30728054	          0.25793538	          0.14333548	          0.05000005	          0.05000000	          0.05000000	          0.26210688	          0.32180033	          0.20776333	          0.34143769	          0.14350273	          0.81703322	          0.05000000	          0.05000000	          0.05000000	          0.08888887	          0.13113168	          0.07596384	          0.17926200	          0.18899869	          0.18100220	          0.54216977	          0.34685346	          0.11851656	          0.54301143	          0.63316272	          0.77514408	          0.95123184	          0.53845071	          0.07343717	          0.67949348	          0.54973562	          0.32430816	          0.30245670	          0.17043106	          0.15153483	          0.06666675	          0.06666666	          0.05983668	          0.06666663	          0.05000005	          0.08861145	          0.55200302	          0.14957139	          0.06666643	          0.05007722	          0.10455325	          0.19916384	          0.23687926	          0.06666664	          0.05000014	          0.05000000	          0.05000001	          0.57697719	          0.05000000	          0.35717198	          0.38568060	          0.30171343	          0.19843132	          0.25161371	          0.22929929	          0.39164670	          0.16155236	          0.21087607	          0.62164018	          0.16611198	          0.15248198	          0.27878174	          0.41668454	          0.54680007	          0.07497069	          0.07532197	          0.25167867	          0.05000000	          0.33289695	          0.05000007	
          3.06000000	         -5.47572668	         -5.57447983	         14.47582359	          4.03910613	          0.91432764	         -0.00150796	         27.26231882	          1.85602669	        -12.92549972	        -60.84679258	          2.30221925	          8.39191236	         14.50736360	         15.93887999	         -1.54187308	          1.13065687	        -28.59932346	         20.79392215	          0.12743754	          3.75401181	          3.73596073	         -2.46366110	          6.63654754	         -3.06686290	        -18.34526386	         17.01519495	         79.88422915	        -24.59778424	        -13.99583427	         -7.58286162	         46.03364178	          0.07743159	          0.07595720	          0.12255702	          0.06223256	          0.05000028	          0.08414938	          0.07079983	          0.05000004	          0.05000000	          0.07888550	          0.16356958	          0.48818753	          0.10202960	          0.05000012	          0.05000003	          0.05000000	          0.23046238	          0.35413713	          0.10750162	          0.05000007	          0.05000000	          0.05000000	          0.22603345	          0.28036690	          0.15582253	          0.52652466	          0.10762708	          0.80552623	          0.05000000	          0.05000000	          0.05000000	          0.06666666	          0.09834876	          0.05697288	          0.13444650	          0.14174902	          0.13575165	          0.44208304	          0.27170051	          0.08888743	          0.68793109	          0.67031959	          0.87582354	          0.97909932	          0.80219307	          0.60290163	          0.50962039	          0.71175818	          0.71041762	          0.22684253	          0.12782331	          0.11365113	          0.05000007	          0.05000022	          0.05000000	          0.05000000	          0.05000000	          0.06645859	          0.41400228	          0.11217888	          0.05000001	          0.05000001	          0.45201869	          0.49574876	          0.17765964	          0.05000000	          0.05000000	          0.05000009	          0.06382784	          0.43273299	          0.05000001	          0.45696931	          0.48225584	          0.37353044	          0.22396373	          0.26656756	          0.28052521	          0.45284416	          0.26230618	          0.25958911	          0.46623014	          0.12458400	          0.11436152	          0.20908634	          0.31251342	          0.41010007	          0.13288265	          0.05649148	          0.31136688	          0.05000004	          0.26209081	          0.05000000	
